Coordinates
version=1
nRows=49
nColumns=12
inDegrees=yes

Units are S.I. units (second, meters, Newtons, ...)
Angles are in degrees

endheader
time	SC_y	SC_z	SC_x	AC_y	AC_z	AC_x	GH_y	GH_z	GH_yy	EL_x	PS_y
       0.0               -47.7         -2.469          3.136          55.65         -19.82           5.79          17.92         -17.89         -171.8          22.49          35.59
   0.02323               -47.7         -2.463          3.136          55.64         -19.82           5.79           17.9         -17.88         -171.8          22.49           35.6
   0.04646              -47.69         -2.458          3.136          55.64         -19.82          5.791          17.88         -17.87         -171.7           22.5          35.62
   0.06969              -47.69         -2.452          3.136          55.64         -19.81          5.791          17.86         -17.86         -171.7           22.5          35.64
   0.09292              -47.68         -2.445          3.136          55.63         -19.81          5.792          17.84         -17.84         -171.6           22.5          35.65
    0.1162              -47.68         -2.438          3.136          55.63         -19.81          5.793          17.82         -17.83         -171.6           22.5          35.67
    0.1394              -47.67         -2.431          3.136          55.63         -19.81          5.794          17.79         -17.81         -171.5           22.5          35.69
    0.1626              -47.67         -2.423          3.136          55.62          -19.8          5.795          17.77         -17.79         -171.4          22.51          35.71
    0.1858              -47.66         -2.415          3.136          55.62          -19.8          5.795          17.74         -17.77         -171.3          22.51          35.73
    0.2091              -47.66         -2.406          3.136          55.61          -19.8          5.796          17.71         -17.75         -171.3          22.51          35.76
    0.2323              -47.65         -2.396          3.136          55.61         -19.79          5.797          17.67         -17.73         -171.2          22.51          35.78
    0.2555              -47.65         -2.385          3.136           55.6         -19.79          5.799          17.64         -17.71         -171.1          22.52          35.81
    0.2788              -47.64         -2.374          3.136          55.59         -19.79            5.8           17.6         -17.68         -171.0          22.52          35.84
     0.302              -47.63         -2.362          3.136          55.59         -19.78          5.801          17.56         -17.65         -170.9          22.52          35.87
    0.3252              -47.62         -2.349          3.136          55.58         -19.78          5.802          17.52         -17.62         -170.8          22.53          35.91
    0.3485              -47.61         -2.334          3.136          55.57         -19.77          5.804          17.47         -17.59         -170.6          22.53          35.94
    0.3717               -47.6         -2.319          3.136          55.56         -19.77          5.806          17.41         -17.56         -170.5          22.54          35.98
    0.3949              -47.59         -2.302          3.136          55.55         -19.76          5.807          17.36         -17.52         -170.3          22.54          36.03
    0.4181              -47.58         -2.284          3.136          55.54         -19.76          5.809           17.3         -17.48         -170.2          22.55          36.08
    0.4414              -47.57         -2.263          3.136          55.53         -19.75          5.812          17.23         -17.43         -170.0          22.55          36.13
    0.4646              -47.55         -2.241          3.136          55.52         -19.74          5.814          17.15         -17.38         -169.8          22.56          36.19
    0.4878              -47.54         -2.217          3.136           55.5         -19.73          5.817          17.07         -17.33         -169.6          22.57          36.25
    0.5111              -47.52          -2.19          3.135          55.49         -19.72          5.819          16.98         -17.27         -169.3          22.58          36.32
    0.5343               -47.5          -2.16          3.135          55.47         -19.71          5.823          16.88          -17.2         -169.1          22.59           36.4
    0.5575              -47.48         -2.126          3.135          55.45          -19.7          5.826          16.77         -17.12         -168.8           22.6          36.49
    0.5808              -47.46         -2.089          3.135          55.43         -19.69           5.83          16.64         -17.04         -168.4          22.61          36.59
     0.604              -47.43         -2.048          3.135          55.41         -19.67          5.835           16.5         -16.95         -168.1          22.62          36.69
    0.6272               -47.4         -2.001          3.135          55.38         -19.66           5.84          16.34         -16.84         -167.7          22.63          36.82
    0.6505              -47.37         -1.948          3.135          55.35         -19.64          5.845          16.16         -16.72         -167.2          22.65          36.96
    0.6737              -47.33         -1.888          3.135          55.32         -19.62          5.852          15.96         -16.59         -166.7          22.67          37.11
    0.6969              -47.28          -1.82          3.135          55.28         -19.59          5.859          15.73         -16.43         -166.0          22.69          37.29
    0.7201              -47.23         -1.741          3.135          55.23         -19.57          5.867          15.46         -16.26         -165.3          22.71           37.5
    0.7434              -47.17          -1.65          3.134          55.18         -19.53          5.877          15.16         -16.05         -164.5          22.74          37.74
    0.7666              -47.11         -1.545          3.134          55.12          -19.5          5.888           14.8         -15.82         -163.6          22.77          38.01
    0.7898              -47.03         -1.421          3.134          55.05         -19.45          5.902          14.39         -15.54         -162.5          22.81          38.34
    0.8131              -46.94         -1.276          3.134          54.96          -19.4          5.917           13.9         -15.21         -161.2          22.85          38.72
    0.8363              -46.82         -1.103          3.133          54.87         -19.34          5.935          13.31         -14.82         -159.6           22.9          39.17
    0.8595              -46.69        -0.8956          3.133          54.75         -19.27          5.958          12.61         -14.36         -157.8          22.97          39.71
    0.8828              -46.53        -0.6449          3.132           54.6         -19.18          5.984          11.77         -13.79         -155.6          23.04          40.37
     0.906              -46.34        -0.3386          3.132          54.43         -19.08          6.017          10.73         -13.11         -152.8          23.13          41.17
    0.9292              -46.09        0.03935          3.131          54.21         -18.94          6.057          9.459         -12.26         -149.5          23.25          42.16
    0.9524              -45.79         0.5107           3.13          53.94         -18.78          6.108          7.869          -11.2         -145.3          23.39           43.4
    0.9757              -45.41          1.105          3.129           53.6         -18.57          6.171          5.866          -9.86         -140.0          23.57          44.95
    0.9989              -44.93          1.859          3.127          53.17         -18.31          6.252           3.32         -8.163         -133.2           23.8          46.93
     1.022              -44.31          2.826          3.126          52.62         -17.97          6.355        0.06078         -5.991         -124.6          24.09          49.47
     1.045              -43.52          4.065          3.123          51.91         -17.53          6.487         -4.122         -3.203         -113.5          24.46          52.71
     1.069               -42.5          5.649           3.12           51.0         -16.98          6.657         -9.464         0.3583         -99.41          24.94          56.86
     1.092              -41.23          7.641          3.116          49.86         -16.28          6.869         -16.18          4.836         -81.64          25.54          62.08
     1.115              -39.67          10.07          3.111          48.47         -15.43          7.128         -24.37          10.29         -59.99          26.27          68.44
